<svg width="15" height="15" viewBox="0 0 15 15" fill="none" xmlns="http://www.w3.org/2000/svg">
<path d="M4.36111 3.63889V0.75M10.1389 3.63889V0.75M3.63889 6.52778H10.8611M2.19444 13.75H12.3056C12.6886 13.75 13.056 13.5978 13.3269 13.3269C13.5978 13.056 13.75 12.6886 13.75 12.3056V3.63889C13.75 3.2558 13.5978 2.8884 13.3269 2.61751C13.056 2.34663 12.6886 2.19444 12.3056 2.19444H2.19444C1.81135 2.19444 1.44395 2.34663 1.17307 2.61751C0.902182 2.8884 0.75 3.2558 0.75 3.63889V12.3056C0.75 12.6886 0.902182 13.056 1.17307 13.3269C1.44395 13.5978 1.81135 13.75 2.19444 13.75Z" stroke="#4E4256" stroke-width="1.5" stroke-linecap="round" stroke-linejoin="round"/>
</svg>
